<svg xmlns="http://www.w3.org/2000/svg" width="40" height="40" viewBox="0 0 40 40" fill="none" class="developer-systems-logo__svg" aria-hidden="true"><rect width="40" height="40" rx="4" fill="#FF5C35"></rect><path d="M26.57 15.56v-3.1c.8-.38 1.37-1.2 1.37-2.15v-.07c0-1.3-1.07-2.38-2.38-2.38h-.07a2.39 2.39 0 0 0-2.38 2.38v.07c0 .95.56 1.77 1.37 2.15v3.1c-1.2.18-2.3.68-3.2 1.4l-8.5-6.6A2.68 2.68 0 1 0 11.5 12l8.35 6.5a6.75 6.75 0 0 0 .1 7.64l-2.53 2.54a2.2 2.2 0 1 0 1.47 1.47l2.51-2.51a6.79 6.79 0 1 0 5.15-12.1Zm-1.05 10.18a3.48 3.48 0 1 1 0-6.96 3.48 3.48 0 0 1 0 6.96Z" fill="#fff"></path></svg>