<svg xmlns="http://www.w3.org/2000/svg" width="42" height="17" fill="none" viewBox="0 0 42 17"><path fill="#fefeff" fill-rule="evenodd" d="M41.751 9.711h-5.643c.129 1.312 1.119 1.733 2.242 1.733 1.145 0 2.067-.249 2.832-.647v2.256c-.783.484-1.818.753-3.196.753-2.807 0-4.775-1.708-4.775-5.085 0-2.852 1.669-5.117 4.411-5.117 2.739 0 4.168 2.23 4.168 5.098 0 .271-.026.858-.039 1.01m-4.147-3.824c-.72 0-1.522.495-1.522 1.757h2.98c0-1.26-.75-1.757-1.458-1.757m-8.936 7.919c-1.008 0-1.625-.414-2.039-.708l-.006 3.146-2.883.596V3.79h2.627l.06.692c.423-.36 1.129-.878 2.259-.878 2.024 0 3.93 1.771 3.93 5.032 0 3.558-1.885 5.17-3.948 5.17m-.671-7.722c-.662 0-1.076.235-1.377.555l.017 4.162c.28.294.684.53 1.36.53 1.066 0 1.78-1.126 1.78-2.634 0-1.465-.726-2.613-1.78-2.613M19.765 3.79h2.894v9.816h-2.894zm0-3.193L22.659 0v2.284l-2.894.597zm-3.021 6.354v6.655h-2.88V3.79h2.58l.092.828c.702-1.205 2.15-.961 2.535-.827v2.574c-.367-.115-1.603-.291-2.327.586m-5.987 3.21c0 1.652 1.82 1.138 2.189.994v2.28c-.385.205-1.081.371-2.023.371-1.711 0-2.995-1.224-2.995-2.882l.013-8.96 2.814-.581.002 2.407h2.19v2.388h-2.19v3.984m-3.435.479c0 2.016-1.617 3.166-4.014 3.166A8 8 0 0 1 .19 13.17v-2.673c.968.51 2.166.894 3.12.894.644 0 1.072-.167 1.072-.685C4.382 9.37 0 9.873 0 6.773c0-1.983 1.593-3.17 3.932-3.17.954 0 1.91.143 2.864.513v2.637c-.877-.46-1.99-.72-2.867-.72-.604 0-1.013.17-1.013.607 0 1.26 4.406.66 4.406 4" clip-rule="evenodd"></path></svg>